<mxfile host="65bd71144e">
    <diagram id="IzPX56W8oC5PkkHI0y0L" name="Page-1">
        <mxGraphModel dx="663" dy="513" grid="1" gridSize="10" guides="1" tooltips="1" connect="1" arrows="1" fold="1" page="1" pageScale="1" pageWidth="827" pageHeight="1169" background="#ffffff" math="0" shadow="0">
            <root>
                <mxCell id="0"/>
                <mxCell id="1" parent="0"/>
                <mxCell id="5" value="o1" style="edgeStyle=none;html=1;fontColor=#000000;strokeColor=#000000;labelBackgroundColor=#FFFFFF;" edge="1" parent="1" source="2">
                    <mxGeometry relative="1" as="geometry">
                        <mxPoint x="530" y="200" as="targetPoint"/>
                    </mxGeometry>
                </mxCell>
                <mxCell id="2" value="&lt;font color=&quot;#000000&quot;&gt;L6&lt;/font&gt;" style="whiteSpace=wrap;html=1;fillColor=#f9f7ed;strokeColor=#36393d;" vertex="1" parent="1">
                    <mxGeometry x="320" y="150" width="100" height="100" as="geometry"/>
                </mxCell>
                <mxCell id="6" value="o2" style="edgeStyle=none;html=1;labelBackgroundColor=#FFFFFF;strokeColor=#000000;fontColor=#0000FF;" edge="1" parent="1" source="3">
                    <mxGeometry relative="1" as="geometry">
                        <mxPoint x="530" y="313" as="targetPoint"/>
                    </mxGeometry>
                </mxCell>
                <mxCell id="3" value="&lt;font color=&quot;#000000&quot;&gt;L6&lt;/font&gt;" style="whiteSpace=wrap;html=1;fillColor=#f9f7ed;strokeColor=#36393d;" vertex="1" parent="1">
                    <mxGeometry x="320" y="263" width="100" height="100" as="geometry"/>
                </mxCell>
                <mxCell id="7" value="o3" style="edgeStyle=none;html=1;labelBackgroundColor=#FFFFFF;strokeColor=#000000;fontColor=#0000FF;" edge="1" parent="1" source="4">
                    <mxGeometry relative="1" as="geometry">
                        <mxPoint x="530" y="430" as="targetPoint"/>
                    </mxGeometry>
                </mxCell>
                <mxCell id="4" value="&lt;font color=&quot;#000000&quot;&gt;L6&lt;/font&gt;" style="whiteSpace=wrap;html=1;fillColor=#f9f7ed;strokeColor=#36393d;" vertex="1" parent="1">
                    <mxGeometry x="320" y="380" width="100" height="100" as="geometry"/>
                </mxCell>
                <mxCell id="14" value="" style="group" vertex="1" connectable="0" parent="1">
                    <mxGeometry x="220" y="175" width="100" height="50" as="geometry"/>
                </mxCell>
                <mxCell id="8" value="" style="edgeStyle=none;orthogonalLoop=1;jettySize=auto;html=1;labelBackgroundColor=#FFFFFF;strokeColor=#000000;fontColor=#0000FF;" edge="1" parent="14">
                    <mxGeometry width="100" relative="1" as="geometry">
                        <mxPoint as="sourcePoint"/>
                        <mxPoint x="100" as="targetPoint"/>
                        <Array as="points"/>
                    </mxGeometry>
                </mxCell>
                <mxCell id="9" value="" style="edgeStyle=none;orthogonalLoop=1;jettySize=auto;html=1;labelBackgroundColor=#FFFFFF;strokeColor=#000000;fontColor=#0000FF;" edge="1" parent="14">
                    <mxGeometry width="100" relative="1" as="geometry">
                        <mxPoint y="10" as="sourcePoint"/>
                        <mxPoint x="100" y="10" as="targetPoint"/>
                        <Array as="points"/>
                    </mxGeometry>
                </mxCell>
                <mxCell id="10" value="" style="edgeStyle=none;orthogonalLoop=1;jettySize=auto;html=1;labelBackgroundColor=#FFFFFF;strokeColor=#000000;fontColor=#0000FF;" edge="1" parent="14">
                    <mxGeometry width="100" relative="1" as="geometry">
                        <mxPoint y="20" as="sourcePoint"/>
                        <mxPoint x="100" y="20" as="targetPoint"/>
                        <Array as="points"/>
                    </mxGeometry>
                </mxCell>
                <mxCell id="11" value="" style="edgeStyle=none;orthogonalLoop=1;jettySize=auto;html=1;labelBackgroundColor=#FFFFFF;strokeColor=#000000;fontColor=#0000FF;" edge="1" parent="14">
                    <mxGeometry width="100" relative="1" as="geometry">
                        <mxPoint y="30" as="sourcePoint"/>
                        <mxPoint x="100" y="30" as="targetPoint"/>
                        <Array as="points"/>
                    </mxGeometry>
                </mxCell>
                <mxCell id="12" value="" style="edgeStyle=none;orthogonalLoop=1;jettySize=auto;html=1;labelBackgroundColor=#FFFFFF;strokeColor=#000000;fontColor=#0000FF;" edge="1" parent="14">
                    <mxGeometry width="100" relative="1" as="geometry">
                        <mxPoint y="39.5" as="sourcePoint"/>
                        <mxPoint x="100" y="39.5" as="targetPoint"/>
                        <Array as="points"/>
                    </mxGeometry>
                </mxCell>
                <mxCell id="13" value="" style="edgeStyle=none;orthogonalLoop=1;jettySize=auto;html=1;labelBackgroundColor=#FFFFFF;strokeColor=#000000;fontColor=#0000FF;" edge="1" parent="14">
                    <mxGeometry width="100" relative="1" as="geometry">
                        <mxPoint y="50" as="sourcePoint"/>
                        <mxPoint x="100" y="50" as="targetPoint"/>
                        <Array as="points"/>
                    </mxGeometry>
                </mxCell>
                <mxCell id="15" value="" style="group" vertex="1" connectable="0" parent="1">
                    <mxGeometry x="220" y="290" width="100" height="50" as="geometry"/>
                </mxCell>
                <mxCell id="16" value="" style="edgeStyle=none;orthogonalLoop=1;jettySize=auto;html=1;labelBackgroundColor=#FFFFFF;strokeColor=#000000;fontColor=#0000FF;" edge="1" parent="15">
                    <mxGeometry width="100" relative="1" as="geometry">
                        <mxPoint as="sourcePoint"/>
                        <mxPoint x="100" as="targetPoint"/>
                        <Array as="points"/>
                    </mxGeometry>
                </mxCell>
                <mxCell id="17" value="" style="edgeStyle=none;orthogonalLoop=1;jettySize=auto;html=1;labelBackgroundColor=#FFFFFF;strokeColor=#000000;fontColor=#0000FF;" edge="1" parent="15">
                    <mxGeometry width="100" relative="1" as="geometry">
                        <mxPoint y="10" as="sourcePoint"/>
                        <mxPoint x="100" y="10" as="targetPoint"/>
                        <Array as="points"/>
                    </mxGeometry>
                </mxCell>
                <mxCell id="18" value="" style="edgeStyle=none;orthogonalLoop=1;jettySize=auto;html=1;labelBackgroundColor=#FFFFFF;strokeColor=#000000;fontColor=#0000FF;" edge="1" parent="15">
                    <mxGeometry width="100" relative="1" as="geometry">
                        <mxPoint y="20" as="sourcePoint"/>
                        <mxPoint x="100" y="20" as="targetPoint"/>
                        <Array as="points"/>
                    </mxGeometry>
                </mxCell>
                <mxCell id="19" value="" style="edgeStyle=none;orthogonalLoop=1;jettySize=auto;html=1;labelBackgroundColor=#FFFFFF;strokeColor=#000000;fontColor=#0000FF;" edge="1" parent="15">
                    <mxGeometry width="100" relative="1" as="geometry">
                        <mxPoint y="30" as="sourcePoint"/>
                        <mxPoint x="100" y="30" as="targetPoint"/>
                        <Array as="points"/>
                    </mxGeometry>
                </mxCell>
                <mxCell id="20" value="" style="edgeStyle=none;orthogonalLoop=1;jettySize=auto;html=1;labelBackgroundColor=#FFFFFF;strokeColor=#000000;fontColor=#0000FF;" edge="1" parent="15">
                    <mxGeometry width="100" relative="1" as="geometry">
                        <mxPoint y="39.5" as="sourcePoint"/>
                        <mxPoint x="100" y="39.5" as="targetPoint"/>
                        <Array as="points"/>
                    </mxGeometry>
                </mxCell>
                <mxCell id="21" value="" style="edgeStyle=none;orthogonalLoop=1;jettySize=auto;html=1;labelBackgroundColor=#FFFFFF;strokeColor=#000000;fontColor=#0000FF;" edge="1" parent="15">
                    <mxGeometry width="100" relative="1" as="geometry">
                        <mxPoint y="50" as="sourcePoint"/>
                        <mxPoint x="100" y="50" as="targetPoint"/>
                        <Array as="points"/>
                    </mxGeometry>
                </mxCell>
                <mxCell id="22" value="" style="group" vertex="1" connectable="0" parent="1">
                    <mxGeometry x="220" y="410" width="100" height="50" as="geometry"/>
                </mxCell>
                <mxCell id="23" value="" style="edgeStyle=none;orthogonalLoop=1;jettySize=auto;html=1;labelBackgroundColor=#FFFFFF;strokeColor=#000000;fontColor=#0000FF;" edge="1" parent="22">
                    <mxGeometry width="100" relative="1" as="geometry">
                        <mxPoint as="sourcePoint"/>
                        <mxPoint x="100" as="targetPoint"/>
                        <Array as="points"/>
                    </mxGeometry>
                </mxCell>
                <mxCell id="24" value="" style="edgeStyle=none;orthogonalLoop=1;jettySize=auto;html=1;labelBackgroundColor=#FFFFFF;strokeColor=#000000;fontColor=#0000FF;" edge="1" parent="22">
                    <mxGeometry width="100" relative="1" as="geometry">
                        <mxPoint y="10" as="sourcePoint"/>
                        <mxPoint x="100" y="10" as="targetPoint"/>
                        <Array as="points"/>
                    </mxGeometry>
                </mxCell>
                <mxCell id="25" value="" style="edgeStyle=none;orthogonalLoop=1;jettySize=auto;html=1;labelBackgroundColor=#FFFFFF;strokeColor=#000000;fontColor=#0000FF;" edge="1" parent="22">
                    <mxGeometry width="100" relative="1" as="geometry">
                        <mxPoint y="20" as="sourcePoint"/>
                        <mxPoint x="100" y="20" as="targetPoint"/>
                        <Array as="points"/>
                    </mxGeometry>
                </mxCell>
                <mxCell id="26" value="" style="edgeStyle=none;orthogonalLoop=1;jettySize=auto;html=1;labelBackgroundColor=#FFFFFF;strokeColor=#000000;fontColor=#0000FF;" edge="1" parent="22">
                    <mxGeometry width="100" relative="1" as="geometry">
                        <mxPoint y="30" as="sourcePoint"/>
                        <mxPoint x="100" y="30" as="targetPoint"/>
                        <Array as="points"/>
                    </mxGeometry>
                </mxCell>
                <mxCell id="27" value="" style="edgeStyle=none;orthogonalLoop=1;jettySize=auto;html=1;labelBackgroundColor=#FFFFFF;strokeColor=#000000;fontColor=#0000FF;" edge="1" parent="22">
                    <mxGeometry width="100" relative="1" as="geometry">
                        <mxPoint y="39.5" as="sourcePoint"/>
                        <mxPoint x="100" y="39.5" as="targetPoint"/>
                        <Array as="points"/>
                    </mxGeometry>
                </mxCell>
                <mxCell id="28" value="" style="edgeStyle=none;orthogonalLoop=1;jettySize=auto;html=1;labelBackgroundColor=#FFFFFF;strokeColor=#000000;fontColor=#0000FF;" edge="1" parent="22">
                    <mxGeometry width="100" relative="1" as="geometry">
                        <mxPoint y="50" as="sourcePoint"/>
                        <mxPoint x="100" y="50" as="targetPoint"/>
                        <Array as="points"/>
                    </mxGeometry>
                </mxCell>
                <mxCell id="29" value="datos" style="text;html=1;align=center;verticalAlign=middle;resizable=0;points=[];autosize=1;strokeColor=none;fillColor=none;fontColor=#0000FF;" vertex="1" parent="1">
                    <mxGeometry x="150" y="185" width="50" height="30" as="geometry"/>
                </mxCell>
                <mxCell id="30" value="datos" style="text;html=1;align=center;verticalAlign=middle;resizable=0;points=[];autosize=1;strokeColor=none;fillColor=none;fontColor=#0000FF;" vertex="1" parent="1">
                    <mxGeometry x="150" y="300" width="50" height="30" as="geometry"/>
                </mxCell>
                <mxCell id="31" value="datos" style="text;html=1;align=center;verticalAlign=middle;resizable=0;points=[];autosize=1;strokeColor=none;fillColor=none;fontColor=#0000FF;" vertex="1" parent="1">
                    <mxGeometry x="150" y="420" width="50" height="30" as="geometry"/>
                </mxCell>
            </root>
        </mxGraphModel>
    </diagram>
</mxfile>